<?xml version="1.0" standalone="no"?>
<!DOCTYPE svg PUBLIC "-//W3C//DTD SVG 20010904//EN"
 "http://www.w3.org/TR/2001/REC-SVG-20010904/DTD/svg10.dtd">
<svg version="1.0" xmlns="http://www.w3.org/2000/svg"
 width="1053.000000pt" height="1053.000000pt" viewBox="0 0 1053.000000 1053.000000"
 preserveAspectRatio="xMidYMid meet">
<metadata>
Created by potrace 1.11, written by Peter Selinger 2001-2013
</metadata>
<g transform="translate(0.000000,1053.000000) scale(0.100000,-0.100000)"
fill="#000000" stroke="none">
<path d="M4879 10525 c-1 0 -1 -1205 0 -1226 1 -15 41 -17 453 -15 l453 1 0
618 c0 339 -2 618 -5 618 -3 1 -889 5 -901 4z"/>
<path d="M8490 9070 c-107 -110 -295 -303 -417 -428 -123 -125 -223 -232 -223
-237 0 -6 124 -134 274 -284 l275 -275 297 295 c163 162 354 351 424 421 l128
127 -146 152 c-81 84 -208 214 -282 290 l-135 139 -195 -200z"/>
<path d="M1732 9113 c-72 -71 -207 -203 -300 -295 l-169 -168 101 -104 c298
-307 731 -746 736 -746 3 0 50 44 105 96 345 332 495 478 495 484 0 7 -26 33
-440 459 -129 133 -270 278 -312 321 -42 44 -79 80 -81 80 -2 0 -63 -57 -135
-127z"/>
<path d="M4775 8913 c-72 -10 -336 -60 -405 -77 -207 -52 -519 -166 -710 -261
-159 -78 -440 -242 -488 -285 -10 -8 -40 -30 -67 -49 -225 -155 -501 -416
-720 -682 -94 -113 -243 -332 -336 -494 -128 -224 -278 -572 -324 -755 -2 -8
-20 -73 -40 -145 -19 -71 -35 -131 -34 -133 0 -1 -2 -15 -5 -30 -14 -62 -25
-130 -50 -307 -28 -194 -29 -745 -1 -880 2 -11 7 -42 11 -70 14 -119 31 -208
60 -325 14 -58 27 -114 30 -124 7 -36 65 -221 96 -306 68 -188 214 -494 303
-636 209 -331 372 -535 620 -774 443 -428 999 -743 1593 -904 119 -32 258 -63
327 -72 17 -2 50 -8 75 -13 25 -5 79 -13 120 -17 41 -3 78 -8 83 -11 4 -2 7
213 7 479 l0 484 -23 2 c-20 1 -135 24 -189 38 -10 2 -27 6 -38 8 -484 108
-982 376 -1344 726 -132 128 -356 397 -356 429 0 5 -4 11 -8 13 -18 7 -156
257 -215 388 -90 199 -169 477 -203 709 -4 25 -8 54 -10 65 -25 136 -24 606 1
721 3 11 7 34 10 50 15 94 28 157 42 210 8 33 16 67 18 75 6 33 94 287 109
315 9 17 16 33 16 37 0 17 98 211 161 318 206 353 495 663 829 892 166 114
378 227 530 283 41 15 84 31 95 35 74 29 194 64 295 85 102 22 99 22 150 30
25 4 54 9 65 11 10 2 34 5 52 6 l33 2 0 477 0 478 -37 -2 c-21 -1 -78 -7 -128
-14z"/>
<path d="M5749 8911 c-1 -3 -2 -219 -3 -478 l-1 -473 492 0 492 0 15 -22 c14
-19 16 -79 16 -445 0 -410 -1 -424 -20 -443 -20 -20 -33 -20 -909 -20 l-888 0
-1 -652 c0 -359 2 -660 4 -669 4 -14 63 -16 570 -16 426 0 568 -3 577 -12 19
-19 20 -873 1 -899 -13 -19 -29 -20 -566 -21 -304 0 -560 -1 -569 -1 -15 0
-16 -97 -16 -1114 l0 -1113 379 1 c209 1 385 -2 391 -6 9 -5 12 -131 13 -465
1 -252 2 -464 3 -472 1 -16 33 -12 226 25 370 72 647 168 995 343 244 123 547
328 760 516 81 71 275 267 353 358 130 148 311 397 381 522 9 17 33 57 52 90
187 322 369 832 418 1170 4 23 8 51 11 64 2 13 7 49 11 80 3 31 8 63 9 72 26
137 26 613 0 824 -10 85 -19 151 -20 155 -1 3 -5 28 -10 55 -28 177 -94 428
-159 609 -194 535 -484 993 -880 1388 -134 134 -247 233 -361 318 -33 25 -62
47 -65 50 -37 37 -493 320 -516 320 -2 0 -50 22 -107 49 -293 141 -623 243
-969 300 -60 10 -109 15 -109 12z"/>
<path d="M9343 5702 l-53 -3 0 -455 0 -454 615 0 615 0 0 455 c0 426 -1 455
-17 456 -75 2 -1119 3 -1160 1z"/>
<path d="M13 5244 l2 -456 608 -1 c334 0 611 4 615 7 4 4 7 210 7 457 l0 449
-617 0 -616 0 1 -456z"/>
<path d="M1943 2512 c-100 -97 -294 -288 -431 -423 l-251 -247 291 -291 290
-292 409 408 c225 224 409 411 409 415 0 4 -53 67 -117 141 -127 144 -170 192
-242 276 -25 29 -54 63 -64 75 -10 11 -37 42 -59 69 -22 26 -43 47 -47 47 -3
0 -88 -80 -188 -178z"/>
<path d="M8355 2594 c-44 -42 -109 -103 -145 -136 -36 -33 -114 -106 -175
-163 -60 -56 -131 -122 -157 -146 l-47 -44 57 -62 c49 -52 181 -192 421 -442
154 -162 326 -343 331 -349 3 -4 13 -13 22 -21 16 -12 48 17 314 283 251 250
294 298 282 309 -73 77 -575 593 -683 704 l-140 143 -80 -76z"/>
<path d="M4940 615 l0 -615 454 0 455 0 -1 615 0 615 -454 0 -454 0 0 -615z"/>
</g>
</svg>
